<svg width="48" height="48" viewBox="0 0 48 48" fill="none" xmlns="http://www.w3.org/2000/svg">
<g id="Logo">
<rect width="48" height="48" rx="10" fill="#F3EEFF"/>
<path id="Vector" d="M31.6554 27.0821C31.527 26.8596 31.2059 26.8596 31.0773 27.082L23.7103 39.8356C23.5822 40.0573 23.7411 40.3362 23.9972 40.3365C24.005 40.3365 24.0129 40.3365 24.0207 40.3365C28.7595 40.3365 33.0263 38.3161 36.007 35.0899C36.1065 34.9822 36.1245 34.8226 36.0513 34.6958L31.6554 27.0821ZM24.8873 31.6633L10.1765 31.6769C9.92026 31.6771 9.75872 31.9547 9.88701 32.1765C12.1295 36.0541 15.9217 38.9229 20.4169 39.9363C20.5598 39.9687 20.7073 39.9045 20.7806 39.7778L25.1767 32.1635C25.3052 31.9408 25.1444 31.663 24.8873 31.6633ZM38.1609 15.8755C35.9165 11.9875 32.1146 9.11181 27.6079 8.10068C27.465 8.0686 27.3177 8.1325 27.2445 8.25949L22.846 15.8778C22.7175 16.1006 22.8781 16.3786 23.1352 16.3785L37.8711 16.3758C38.1272 16.3757 38.289 16.0974 38.1609 15.8755ZM39.2858 18.9405H30.4903C30.2333 18.9405 30.0727 19.2188 30.2013 19.4413L37.5679 32.1916C37.6966 32.4143 38.0175 32.4132 38.1466 32.1908C39.5391 29.7881 40.3366 26.9975 40.3366 24.0207C40.3366 22.3336 40.0804 20.7064 39.6049 19.1757C39.5616 19.0359 39.4322 18.9405 39.2858 18.9405ZM24.0265 7.70483C24.0245 7.70483 24.0226 7.70483 24.0207 7.70483C19.2826 7.70483 15.0165 9.7246 12.0358 12.9499C11.9364 13.0573 11.9183 13.2172 11.9916 13.344L16.3868 20.9566C16.5153 21.1794 16.8366 21.1791 16.965 20.9564L24.3137 8.20527C24.4413 7.98364 24.2824 7.70489 24.0265 7.70483ZM8.75915 29.1123H17.5578C17.8147 29.1123 17.9753 28.8341 17.8468 28.6115L10.4746 15.8478C10.3459 15.6248 10.025 15.6259 9.89594 15.8486C8.50264 18.2517 7.70483 21.043 7.70483 24.0207C7.70483 25.7121 7.9624 27.3432 8.44011 28.8773C8.48359 29.0171 8.61283 29.1123 8.75915 29.1123Z" fill="#7535FC"/>
</g>
</svg>
